<svg width="57" height="24" viewBox="0 0 57 24"  fill="none" xmlns="http://www.w3.org/2000/svg"><path d="M54.452 8.75a.274.274 0 0 0 .269.278.27.27 0 0 0 .276-.267.274.274 0 0 0-.269-.278.27.27 0 0 0-.276.267z" fill="#000"/><path fill-rule="evenodd" clip-rule="evenodd" d="M54.024 1.005c-.182.395-.35.95-.496 1.649-.288 1.376-.468 3.182-.494 4.956-.027 1.884.111 4.473.428 5.964-.32.202-.523.549-.529.941-.005.362.16.688.422.902l-.717 1.536a.285.285 0 0 0 .007.255l1.66 3.118.002.002v.002c.108.197.39.2.499.005l1.75-3.048a.284.284 0 0 0 .01-.265l-.726-1.51c.31-.206.5-.546.507-.928a1.151 1.151 0 0 0-.501-.962c.36-1.477.574-4.059.601-5.942.026-1.774-.101-3.587-.35-4.974-.125-.705-.275-1.266-.446-1.668-.082-.193-.331-.78-.802-.789-.472-.01-.738.566-.825.756zm1.964 16.126-1.13 1.968.029-1.983a.287.287 0 0 0-.28-.29.283.283 0 0 0-.289.278l-.029 1.984-1.075-2.02.651-1.396.716.015.72.014.687 1.43zm-.787-2a.565.565 0 0 0 .577-.559.574.574 0 0 0-.56-.58 43.417 43.417 0 0 1-.866-.018c-.313-.009-.365-.01-.47.026a.566.566 0 0 0-.38.527.574.574 0 0 0 .56.58l1.139.023z" fill="#000"/><path d="m54.491 4.74-.042 2.915a.294.294 0 0 0 .287.297.29.29 0 0 0 .296-.285l.042-2.915a.294.294 0 0 0-.287-.298.29.29 0 0 0-.296.286z" fill="#000"/><path fill-rule="evenodd" clip-rule="evenodd" d="M9.066 16.53c0 .707-.177 1.343-.533 1.907-.355.564-.875 1.006-1.56 1.325-.685.32-1.497.48-2.436.48-1.126 0-2.054-.219-2.786-.655A3.758 3.758 0 0 1 .486 18.33C.162 17.806 0 17.296 0 16.8c0-.287.097-.533.292-.738a.98.98 0 0 1 .743-.307c.244 0 .45.08.619.239.168.16.312.396.432.71.145.373.302.684.47.934.17.25.406.457.713.619.306.162.708.243 1.206.243.685 0 1.241-.163 1.67-.49.427-.328.641-.736.641-1.226 0-.388-.115-.704-.346-.946a2.224 2.224 0 0 0-.895-.555 15.096 15.096 0 0 0-1.467-.407c-.82-.197-1.506-.427-2.059-.69a3.343 3.343 0 0 1-1.315-1.078c-.324-.455-.486-1.02-.486-1.696 0-.644.171-1.216.514-1.716.342-.5.837-.885 1.486-1.153.648-.27 1.411-.403 2.288-.403.7 0 1.306.089 1.817.267.511.178.935.415 1.272.71.338.296.584.606.74.93.155.325.233.642.233.95 0 .282-.097.536-.292.762a.92.92 0 0 1-.727.34c-.265 0-.466-.068-.603-.204-.138-.136-.287-.358-.448-.666-.207-.442-.456-.787-.747-1.034-.29-.248-.757-.371-1.4-.371-.597 0-1.079.134-1.444.403-.366.269-.549.592-.549.97a1 1 0 0 0 .187.606c.124.17.296.317.513.44a3.5 3.5 0 0 0 .662.287c.223.069.591.17 1.105.303.643.154 1.226.325 1.747.51.522.187.965.413 1.33.68.367.265.652.602.857 1.01.205.406.307.905.307 1.496zm3.938-3.912v6.298c0 .437-.101.767-.303.99a.994.994 0 0 1-.77.335.949.949 0 0 1-.76-.343c-.194-.229-.291-.556-.291-.982v-6.234c0-.43.097-.755.291-.973a.969.969 0 0 1 .76-.328c.31 0 .567.11.77.328.202.218.303.521.303.91zm-1.05-2.25c-.296 0-.55-.094-.76-.28-.21-.186-.314-.45-.314-.79a.99.99 0 0 1 .323-.762c.215-.2.465-.3.75-.3.276 0 .52.09.732.272.213.18.32.444.32.79 0 .335-.105.597-.312.786a1.061 1.061 0 0 1-.74.284zm11.058 2.61v6.33c0 .723-.075 1.346-.225 1.867-.15.522-.392.953-.724 1.293-.332.341-.767.594-1.304.759-.537.165-1.205.247-2.004.247-.731 0-1.385-.105-1.96-.315-.577-.21-1.02-.482-1.332-.814-.31-.333-.466-.675-.466-1.026 0-.266.088-.483.264-.65a.893.893 0 0 1 .638-.252c.312 0 .584.141.817.423.115.144.233.289.354.435.122.146.257.272.405.375.148.104.326.181.533.232.208.05.447.075.716.075.55 0 .977-.078 1.28-.235.304-.157.517-.376.639-.659.122-.281.193-.583.214-.905.02-.322.036-.84.046-1.553-.327.468-.704.825-1.132 1.07-.428.244-.938.367-1.53.367-.71 0-1.331-.186-1.863-.559-.532-.372-.94-.894-1.226-1.564-.285-.67-.428-1.445-.428-2.323 0-.655.087-1.245.26-1.772.175-.527.422-.971.744-1.333a3.185 3.185 0 0 1 1.113-.818c.42-.184.882-.276 1.385-.276.602 0 1.123.119 1.564.355.441.237.851.608 1.23 1.114v-.295c0-.378.09-.67.272-.878a.888.888 0 0 1 .7-.312c.41 0 .683.137.818.411.135.274.202.67.202 1.186zm-6.156 2.761c0 .884.188 1.552.564 2.004a1.81 1.81 0 0 0 1.46.679c.353 0 .686-.098 1-.292.314-.194.57-.487.766-.878.197-.391.296-.866.296-1.425 0-.888-.19-1.58-.572-2.075a1.81 1.81 0 0 0-1.506-.742c-.607 0-1.093.236-1.459.71-.366.474-.549 1.147-.549 2.02zm12.304 2.539-1.829-7.455V18.9c0 .447-.097.783-.291 1.006-.195.224-.453.335-.775.335a.975.975 0 0 1-.762-.33c-.198-.222-.296-.558-.296-1.01V9.64c0-.51.13-.855.389-1.033.26-.179.61-.268 1.05-.268h.716c.431 0 .744.04.938.12.195.08.339.223.432.43.094.208.2.546.32 1.015l1.657 6.41 1.658-6.41c.119-.469.225-.807.319-1.014a.797.797 0 0 1 .431-.431c.195-.08.508-.12.938-.12h.716c.441 0 .791.09 1.05.268.26.178.39.522.39 1.033v9.26c0 .446-.097.782-.292 1.005-.194.224-.455.335-.782.335a.962.962 0 0 1-.755-.335c-.197-.223-.296-.559-.296-1.006v-8.077l-1.828 7.455c-.12.484-.217.84-.292 1.065a1.473 1.473 0 0 1-.417.619c-.202.186-.482.28-.84.28-.27 0-.498-.06-.685-.18a1.278 1.278 0 0 1-.436-.46 2.657 2.657 0 0 1-.245-.618 81.84 81.84 0 0 1-.183-.706zm14.646.734c-.513.41-1.01.717-1.49.922a4.074 4.074 0 0 1-1.615.307c-.544 0-1.023-.11-1.435-.33a2.387 2.387 0 0 1-1.288-2.128c0-.596.184-1.104.552-1.525.368-.42.874-.702 1.518-.846.134-.032.47-.104 1.003-.215.535-.112.993-.214 1.374-.308.381-.093.795-.206 1.241-.339-.026-.575-.138-.996-.338-1.265-.2-.269-.614-.403-1.241-.403-.54 0-.946.077-1.218.231a2 2 0 0 0-.7.695 7.388 7.388 0 0 1-.413.61c-.08.099-.253.148-.518.148a.893.893 0 0 1-.618-.235.776.776 0 0 1-.261-.603c0-.383.132-.756.397-1.117.264-.362.677-.66 1.237-.895.56-.234 1.258-.35 2.094-.35.933 0 1.668.112 2.202.339.534.226.912.584 1.132 1.073.22.49.331 1.139.331 1.948a182.822 182.822 0 0 1-.016 2.49c0 .41.067.837.199 1.281.132.445.198.73.198.858 0 .224-.102.427-.307.611a1.016 1.016 0 0 1-.697.275c-.218 0-.433-.105-.645-.315-.213-.21-.439-.515-.678-.914zm-.14-3.153c-.31.117-.763.241-1.357.371-.595.13-1.006.227-1.234.288a1.66 1.66 0 0 0-.654.359c-.207.178-.311.427-.311.746 0 .33.122.61.366.842.244.232.563.348.957.348.42 0 .808-.095 1.163-.284.356-.189.617-.432.783-.73.192-.33.288-.873.288-1.628v-.312zm6.366-3.24v6.297c0 .437-.1.767-.303.99a.994.994 0 0 1-.77.335.95.95 0 0 1-.76-.343c-.194-.229-.291-.556-.291-.982v-6.234c0-.43.097-.755.291-.973a.97.97 0 0 1 .76-.328c.31 0 .567.11.77.328.202.218.303.521.303.91zm-1.05-2.251a1.11 1.11 0 0 1-.76-.28c-.21-.186-.314-.45-.314-.79a.99.99 0 0 1 .323-.762c.215-.2.465-.3.75-.3.276 0 .52.09.732.272.213.18.32.444.32.79 0 .335-.105.597-.312.786a1.062 1.062 0 0 1-.74.284zm-9.055-6.805V5.58c0 .318-.072.557-.217.717a.737.737 0 0 1-.573.239.715.715 0 0 1-.559-.24c-.143-.159-.214-.398-.214-.716V3.162c0-.382-.013-.678-.039-.89a.964.964 0 0 0-.212-.52c-.114-.134-.296-.202-.545-.202-.497 0-.824.17-.982.511-.157.341-.236.83-.236 1.468v2.052c0 .315-.072.553-.215.714a.718.718 0 0 1-.564.242.729.729 0 0 1-.565-.242c-.147-.161-.22-.4-.22-.714V1.239c0-.286.066-.503.198-.65a.662.662 0 0 1 .52-.223c.208 0 .381.07.52.208.14.14.209.331.209.576v.144c.263-.315.545-.546.846-.695.3-.148.634-.222 1.001-.222.382 0 .71.076.985.228.275.152.5.382.679.69a2.64 2.64 0 0 1 .823-.693c.293-.15.618-.225.974-.225.416 0 .774.081 1.074.245.3.163.525.396.673.7.13.274.195.706.195 1.295v2.964c0 .318-.072.557-.217.717a.737.737 0 0 1-.573.239.729.729 0 0 1-.565-.242c-.146-.161-.22-.4-.22-.714V3.029c0-.326-.014-.588-.041-.784a.9.9 0 0 0-.226-.495c-.122-.133-.308-.2-.556-.2-.2 0-.39.06-.57.178-.18.118-.32.278-.42.478-.112.256-.168.708-.168 1.357zm6.433 3.163.139-.34-1.87-4.703c-.115-.27-.172-.467-.172-.589 0-.13.033-.25.1-.361a.747.747 0 0 1 .276-.267.725.725 0 0 1 .364-.1c.219 0 .384.07.495.208.111.14.21.338.295.598l1.285 3.736 1.219-3.475a6.11 6.11 0 0 1 .261-.661c.078-.16.16-.267.248-.323a.688.688 0 0 1 .37-.083c.115 0 .226.03.331.092a.667.667 0 0 1 .331.575 7.4 7.4 0 0 1-.072.3c-.034.13-.074.261-.123.395l-1.98 5.181c-.171.456-.338.814-.501 1.073-.163.26-.38.459-.648.598-.27.139-.632.208-1.088.208-.445 0-.78-.048-1.002-.144-.222-.096-.334-.273-.334-.528 0-.174.053-.309.159-.403.106-.095.263-.142.47-.142a.88.88 0 0 1 .24.033c.096.023.18.034.25.034a.905.905 0 0 0 .412-.078c.1-.052.19-.142.27-.27.08-.128.171-.316.275-.564z" fill="#000"/></svg>