<svg xmlns="http://www.w3.org/2000/svg" viewBox="0 0 512 512"><path d="M502 206.5h-82v-21.167c0-5.523-4.478-10-10-10H194c-5.522 0-10 4.477-10 10s4.478 10 10 10h206v76.666c0 67.348-35.957 129.942-94.018 164H114.018C55.957 401.942 20 339.347 20 272v-76.666h67c5.522 0 10-4.477 10-10s-4.478-10-10-10H10c-5.522 0-10 4.477-10 10V272c0 37.8 10.16 74.864 29.382 107.183C42.345 400.98 59.165 420.228 78.862 436H10c-5.522 0-10 4.477-10 10 0 36.393 29.607 66 66 66h312c36.393 0 66-29.607 66-66 0-5.523-4.478-10-10-10h-92.862a211.208 211.208 0 0 0 46.302-51.667h28.227C468.785 384.333 512 341.118 512 288v-71.5c0-5.523-4.477-10-10-10zM422.905 456c-4.578 20.572-22.974 36-44.905 36H66c-21.931 0-40.326-15.428-44.905-36h401.81zM420 272v-5.5h32V288c0 20.034-16.299 36.333-36.333 36.333h-2.271A210.508 210.508 0 0 0 420 272zm72 16c0 42.09-34.243 76.333-76.333 76.333h-17.02a208.8 208.8 0 0 0 8.537-20h8.483C446.73 344.333 472 319.062 472 288v-31.5c0-5.523-4.478-10-10-10h-42v-20h72V288zM219.549 55.343l-5.203-6.533c-7.638-9.588-7.649-22.991-.027-32.593 3.434-4.326 2.71-10.616-1.616-14.049-4.327-3.435-10.616-2.71-14.05 1.616-13.442 16.936-13.422 40.575.049 57.487l5.203 6.533c9.981 12.53 9.996 30.045.036 42.594l-5.332 6.718c-3.434 4.326-2.71 10.616 1.616 14.049a9.96 9.96 0 0 0 6.21 2.168 9.984 9.984 0 0 0 7.84-3.784l5.332-6.718c15.78-19.882 15.757-47.634-.058-67.488zm55.429 22.484l-5.203-6.532c-7.638-9.589-7.649-22.992-.027-32.594 3.434-4.326 2.71-10.616-1.616-14.049-4.327-3.435-10.616-2.71-14.05 1.616-13.442 16.936-13.422 40.575.049 57.488l5.203 6.533c9.98 12.531 9.995 30.047.035 42.595l-5.331 6.717c-3.434 4.326-2.71 10.616 1.616 14.049a9.959 9.959 0 0 0 6.21 2.167 9.985 9.985 0 0 0 7.84-3.784l5.33-6.717c15.781-19.881 15.758-47.633-.056-67.489zm-110.858.001l-5.203-6.532c-7.638-9.588-7.649-22.992-.028-32.594 3.434-4.326 2.71-10.616-1.616-14.05-4.327-3.434-10.616-2.708-14.05 1.616-13.441 16.936-13.421 40.576.05 57.488l5.203 6.533c9.98 12.531 9.995 30.047.036 42.594l-5.332 6.717c-3.434 4.326-2.711 10.616 1.615 14.05a9.958 9.958 0 0 0 6.21 2.168 9.982 9.982 0 0 0 7.839-3.783l5.333-6.718c15.78-19.881 15.757-47.633-.057-67.489z"/><path d="M150.28 178.26c-1.86-1.86-4.44-2.93-7.07-2.93s-5.21 1.07-7.07 2.93c-1.859 1.87-2.93 4.44-2.93 7.07s1.07 5.21 2.93 7.08c1.86 1.86 4.44 2.92 7.07 2.92s5.21-1.06 7.07-2.92a10.06 10.06 0 0 0 2.93-7.08c0-2.63-1.061-5.21-2.93-7.07zM362 262c-5.522 0-10 4.477-10 10 0 37.119-15.056 73.598-41.308 100.083-3.888 3.922-3.859 10.254.063 14.142a9.968 9.968 0 0 0 7.04 2.898 9.974 9.974 0 0 0 7.103-2.962C354.832 355.961 372 314.351 372 272c0-5.523-4.478-10-10-10zm-68.115 137.225c-2.714-4.811-8.813-6.51-13.623-3.797l-.228.129c-4.811 2.714-6.51 8.813-3.797 13.623a9.996 9.996 0 0 0 13.623 3.797l.228-.129c4.811-2.714 6.51-8.813 3.797-13.623z"/></svg>