<svg xmlns="http://www.w3.org/2000/svg" viewBox="-10 550 20 20"><path class="st0" d="M8.7 555c-.9-1.5-2.1-2.7-3.6-3.6-1.5-.9-3.2-1.3-5-1.3-1.8 0-3.5.4-5 1.3s-2.7 2.1-3.6 3.6c-.9 1.5-1.3 3.2-1.3 5 0 1.8.4 3.5 1.3 5s2.1 2.7 3.6 3.6c1.5.9 3.2 1.3 5 1.3s3.5-.4 5-1.3 2.7-2.1 3.6-3.6c.9-1.5 1.3-3.2 1.3-5 0-1.8-.4-3.5-1.3-5zM0 551.5c2.2 0 4 .7 5.6 2.1l-.2.2c-.1.1-.2.3-.5.5-.3.3-.5.5-.9.7-.3.2-.7.5-1.3.8-.5.3-1.1.6-1.7.8-1-1.8-2.1-3.5-3.2-5 .9-.1 1.5-.1 2.2-.1zm-6.7 3.2c.8-1.1 1.8-1.9 3-2.4 1.1 1.4 2.1 3.1 3.2 4.9-2.6.7-5.3 1-7.9 1 .3-1.3.9-2.4 1.7-3.5zm-1.3 8.4c-.4-1-.6-2-.6-3.1v-.3c3.1 0 6.1-.4 8.8-1.2.3.5.5 1 .7 1.4 0 0-.1 0-.2.1H.5l-.5.2c-.3.1-.8.3-1.3.6s-1.1.6-1.7 1.1c-.6.4-1.2.9-1.9 1.6-.6.7-1.2 1.4-1.6 2.2-.5-.8-1.1-1.6-1.5-2.6zm8 5.4c-2 0-3.8-.7-5.4-2l.2.1c.3-.7.8-1.3 1.3-1.9.6-.6 1.2-1.1 1.7-1.5.5-.4 1.1-.7 1.8-1.1.6-.3 1.1-.5 1.3-.6.2-.1.4-.2.6-.2.9 2.2 1.5 4.4 1.8 6.5-1 .5-2.2.7-3.3.7zm7.2-3.9c-.6 1-1.4 1.8-2.4 2.5-.4-2-.9-4-1.7-6.1 1.7-.3 3.5-.1 5.3.4-.2 1.1-.6 2.2-1.2 3.2zm1.2-4.7c-.1 0-.2 0-.3-.1-.1 0-.3 0-.5-.1-.2 0-.4-.1-.6-.1-.2 0-.5-.1-.7-.1-.3 0-.5 0-.8-.1H3.6c-.3 0-.6 0-1 .1 0 0-.1-.1-.1-.2s-.1-.2-.1-.2l-.6-1.2c.6-.2 1.2-.5 1.7-.8.5-.3 1-.6 1.3-.8.3-.2.6-.5.9-.8l.6-.6c.1-.1.2-.2.2-.3 1.3 1.5 1.9 3.3 1.9 5.3z"/></svg>