<?xml version="1.0" encoding="utf-8"?>
<!-- Generator: Adobe Illustrator 19.0.0, SVG Export Plug-In . SVG Version: 6.00 Build 0)  -->
<svg version="1.1" id="Layer_1" xmlns="http://www.w3.org/2000/svg" xmlns:xlink="http://www.w3.org/1999/xlink" x="0px" y="0px"
	 viewBox="-10 550 20 20" style="enable-background:new -10 550 20 20;" xml:space="preserve">
<path class="st0" d="M8.7,555c-0.9-1.5-2.1-2.7-3.6-3.6c-1.5-0.9-3.2-1.3-5-1.3c-1.8,0-3.5,0.4-5,1.3c-1.5,0.9-2.7,2.1-3.6,3.6
	c-0.9,1.5-1.3,3.2-1.3,5c0,1.8,0.4,3.5,1.3,5c0.9,1.5,2.1,2.7,3.6,3.6c1.5,0.9,3.2,1.3,5,1.3s3.5-0.4,5-1.3c1.5-0.9,2.7-2.1,3.6-3.6
	c0.9-1.5,1.3-3.2,1.3-5C10,558.2,9.6,556.5,8.7,555L8.7,555z M0,551.5c2.2,0,4,0.7,5.6,2.1l-0.2,0.2c-0.1,0.1-0.2,0.3-0.5,0.5
	c-0.3,0.3-0.5,0.5-0.9,0.7c-0.3,0.2-0.7,0.5-1.3,0.8c-0.5,0.3-1.1,0.6-1.7,0.8c-1-1.8-2.1-3.5-3.2-5C-1.3,551.5-0.7,551.5,0,551.5
	L0,551.5z M-6.7,554.7c0.8-1.1,1.8-1.9,3-2.4c1.1,1.4,2.1,3.1,3.2,4.9c-2.6,0.7-5.3,1-7.9,1C-8.1,556.9-7.5,555.8-6.7,554.7z
	 M-8,563.1c-0.4-1-0.6-2-0.6-3.1c0-0.1,0-0.2,0-0.3c3.1,0,6.1-0.4,8.8-1.2c0.3,0.5,0.5,1,0.7,1.4c0,0-0.1,0-0.2,0.1
	c-0.1,0-0.1,0-0.2,0l-0.5,0.2c-0.3,0.1-0.8,0.3-1.3,0.6c-0.5,0.3-1.1,0.6-1.7,1.1c-0.6,0.4-1.2,0.9-1.9,1.6
	c-0.6,0.7-1.2,1.4-1.6,2.2C-7,564.9-7.6,564.1-8,563.1z M0,568.5c-2,0-3.8-0.7-5.4-2l0.2,0.1c0.3-0.7,0.8-1.3,1.3-1.9
	c0.6-0.6,1.2-1.1,1.7-1.5c0.5-0.4,1.1-0.7,1.8-1.1c0.6-0.3,1.1-0.5,1.3-0.6c0.2-0.1,0.4-0.2,0.6-0.2l0,0h0c0.9,2.2,1.5,4.4,1.8,6.5
	C2.3,568.3,1.1,568.5,0,568.5L0,568.5z M7.2,564.6c-0.6,1-1.4,1.8-2.4,2.5c-0.4-2-0.9-4-1.7-6.1c1.7-0.3,3.5-0.1,5.3,0.4
	C8.2,562.5,7.8,563.6,7.2,564.6z M8.4,559.9c-0.1,0-0.2,0-0.3-0.1c-0.1,0-0.3,0-0.5-0.1c-0.2,0-0.4-0.1-0.6-0.1
	c-0.2,0-0.5-0.1-0.7-0.1c-0.3,0-0.5,0-0.8-0.1c-0.3,0-0.6,0-0.9,0c-0.3,0-0.6,0-1,0c-0.3,0-0.6,0-1,0.1c0,0-0.1-0.1-0.1-0.2
	c0-0.1-0.1-0.2-0.1-0.2c-0.2-0.4-0.4-0.8-0.6-1.2c0.6-0.2,1.2-0.5,1.7-0.8c0.5-0.3,1-0.6,1.3-0.8c0.3-0.2,0.6-0.5,0.9-0.8
	c0.3-0.3,0.5-0.5,0.6-0.6c0.1-0.1,0.2-0.2,0.2-0.3l0,0c1.3,1.5,1.9,3.3,1.9,5.3L8.4,559.9L8.4,559.9z"/>
</svg>
