<svg xmlns="http://www.w3.org/2000/svg" viewBox="-41 164.9 512 512"><path d="M453.7 333c0-111.1-72.8-143.6-72.8-143.6-71.4-32.8-261.1-32.5-331.8 0 0 0-72.8 32.6-72.8 143.6 0 132.2-7.5 296.4 120.7 330.3 46.3 12.2 86 14.9 118 13 58-3.2 90.6-20.7 90.6-20.7l-1.9-42.2s-41.5 13-88.1 11.5c-46.2-1.6-94.8-5-102.4-61.7-.7-5-1-10.3-1-15.9 97.8 23.9 181.2 10.4 204.2 7.7 64.1-7.7 120-47.2 127.1-83.3 11.2-56.8 10.2-138.7 10.2-138.7zm-85.8 143.1h-53.2V345.6c0-56.8-73.1-59-73.1 7.9v71.4h-52.9v-71.4c0-66.8-73.1-64.7-73.1-7.9v130.5H62.1c0-139.5-5.9-169 21-200 29.6-33 91.2-35.2 118.6 7l13.3 22.3 13.3-22.3c27.5-42.4 89.2-39.8 118.6-7 27.1 31.2 21 60.5 21 200z"/></svg>