<svg xmlns="http://www.w3.org/2000/svg" viewBox="-41 164.9 512 512"><path d="M468.6 415.2c0-31.3-25.1-56.7-55.9-56.7-14.7 0-27.9 5.6-38 15-36.6-25.8-86-42.7-141.1-45.9l24.7-82.7 75.8 15.3c2.6 25.6 23.9 45.6 50 45.6h.4c27.8 0 50.3-22.8 50.3-50.9S412.3 204 384.6 204H384.3c-19.4 0-36.1 11.1-44.6 27.5l-101.3-20.3-34.8 116.4-2.8.1c-56.8 2.5-107.9 19.7-145.4 46-9.9-9.4-23.3-15-38-15-30.8 0-55.9 25.4-55.9 56.7 0 22.1 12.4 41.2 30.6 50.6-.9 5.5-1.4 11.1-1.4 16.7.1 85.5 100.5 155.1 224.3 155.1s224.2-69.6 224.2-155.3c0-5.6-.5-11.2-1.2-16.7 18.2-9.4 30.6-28.5 30.6-50.6zM.1 437.9c-7.5-5.1-12.3-13.7-12.3-23.5 0-15.6 12.5-28.4 27.9-28.4 6.3 0 12.2 2.1 16.9 5.8C17.4 405.3 6.1 420.9.1 437.9zm365.5-183c0-10.4 8.4-19 18.6-19s18.6 8.5 18.6 19c0 10.4-8.4 19-18.6 19s-18.6-8.4-18.6-19zM104.9 457.5c0-19.9 16-35.9 35.9-35.9s35.9 16 35.9 35.9-16 35.9-35.9 35.9-35.9-16-35.9-35.9zM215 583.6c-53.8-.2-85.9-32.2-87.2-33.6l14.2-14c.2.2 26.8 27.3 73 27.6 45.5-.2 72.5-27.3 72.9-27.6l14.2 14c-1.4 1.4-33.3 33.3-87.1 33.6zm74.9-90.2c-19.9 0-35.9-16-35.9-35.9s16-35.9 35.9-35.9 35.9 16 35.9 35.9-16.1 35.9-35.9 35.9zm140.2-55c-6.1-17.3-17.6-33.2-33.1-46.8 4.7-3.7 10.7-5.9 17.2-5.9 15.7 0 28.4 12.9 28.4 28.8 0 10-4.9 18.7-12.5 23.9z"/></svg>