<svg xmlns="http://www.w3.org/2000/svg" viewBox="-15 190.9 460 460"><path d="M81.6 481.6c0 26.6-21.7 48.3-48.3 48.3-26.6 0-48.3-21.7-48.3-48.3 0-26.6 21.7-48.3 48.3-48.3h48.3v48.3zm24.4 0c0-26.6 21.7-48.3 48.3-48.3s48.3 21.7 48.3 48.3v121c0 26.6-21.7 48.3-48.3 48.3-26.6 0-48.3-21.7-48.3-48.3v-121zm48.3-194.1c-26.6 0-48.3-21.7-48.3-48.3s21.7-48.3 48.3-48.3 48.3 21.7 48.3 48.3v48.3h-48.3zm0 24.4c26.6 0 48.3 21.7 48.3 48.3 0 26.6-21.7 48.3-48.3 48.3h-121c-26.6 0-48.3-21.7-48.3-48.3 0-26.6 21.7-48.3 48.3-48.3h121zm194.1 48.3c0-26.6 21.7-48.3 48.3-48.3 26.6 0 48.3 21.7 48.3 48.3 0 26.6-21.7 48.3-48.3 48.3h-48.3v-48.3zm-24.4 0c0 26.6-21.7 48.3-48.3 48.3-26.6 0-48.3-21.7-48.3-48.3v-121c0-26.6 21.7-48.3 48.3-48.3 26.6 0 48.3 21.7 48.3 48.3v121zm-48.3 194c26.6 0 48.3 21.7 48.3 48.3 0 26.6-21.7 48.3-48.3 48.3s-48.3-21.7-48.3-48.3v-48.3h48.3zm0-24.3c-26.6 0-48.3-21.7-48.3-48.3 0-26.6 21.7-48.3 48.3-48.3h121c26.6 0 48.3 21.7 48.3 48.3 0 26.6-21.7 48.3-48.3 48.3h-121z"/></svg>